<?xml version="1.0" encoding="UTF-8"?>
<svg id="Layer_1" data-name="Layer 1" xmlns="http://www.w3.org/2000/svg" viewBox="0 0 1105.52 597.15">
  <g>
    <path d="m916.03,334.12c2.07,0,4.16-.17,6.22.03,16.68,1.59,33.42,2.75,49.99,5.09,9.8,1.38,19.41,4.38,28.95,7.18,24.74,7.24,46.06,20.47,63.52,39.26,9.33,10.04,18.04,20.96,25.2,32.61,9.64,15.69,14.92,33.11,15.53,51.9.52,15.93-1.99,31.25-8.14,45.74-9.08,21.43-22.88,39.45-42.05,53.01-18.68,13.22-39.25,22.13-61.83,26.01-23.02,3.95-45.79,3.08-67.4-6.56-10.52-4.69-19.26-12.07-26.36-21.43-15.97-21.06-21.62-44.69-16.67-70.37,3.92-20.34,15.32-36.52,31.96-48.88,20.83-15.49,44.28-22.27,69.92-18.49,21.87,3.23,40.7,12.49,50.29,34.17,7.88,17.82,4.62,38.21-10.97,49.3-11.75,8.35-33.19,8.43-43.54-5.27-.72-.95-.46-2.64-.65-3.98,1.68.06,3.68-.44,4.97.3,2.4,1.38,4.13,3.98,6.58,5.22,17.6,8.89,37.92-2.93,39.19-22.64,1.1-17.07-8.1-32.55-23.7-40.52-16.19-8.28-33.18-10.06-50.85-6.85-24.82,4.51-44.49,17.06-57.83,38.56-11.07,17.84-12.1,37.17-6.43,57.08,4.54,15.98,13.72,28.58,27.75,37.48,8.96,5.69,18.96,8.41,29.41,9.91,21.41,3.07,42.53,1.18,63.1-4.83,26.93-7.86,48.78-23.07,64.71-46.71,12.98-19.27,19.52-40.29,18.79-63.33-.8-25.39-10.89-47.16-27.4-66.29-15.74-18.24-36.04-29.56-57.83-38.31-12.4-4.98-25.56-8.1-38.39-12.02-.56-.17-1.26.08-3.06.23,1.43,1.45,2.17,2.32,3.03,3.04,3.93,3.31,8.15,6.33,11.76,9.96,2.81,2.82,3.88,6.26,1.41,10.39-2.57,4.3-6.57,5.76-10.51,4.45-6.53-2.17-13.06-4.96-18.84-8.67-10.99-7.04-21.35-15.03-32.18-22.32-2.6-1.75-5.98-3.18-9.04-3.25-26.32-.54-52.63-.12-78.6,4.74-21.54,4.03-42.81,9.23-63.06,17.94-11.25,4.84-22.68,9.28-33.95,14.1-3.23,1.38-6.18,3.42-9.26,5.16.16.37.32.75.48,1.12,6.82-1.87,13.65-3.72,20.47-5.62,21.79-6.06,43.82-10.87,66.44-12.41,14.41-.98,28.89-2.62,43.27-2.07,12.98.5,25.92,3.22,38.75,5.67,5.33,1.01,9.23,5,11.46,10.25,2.88,6.78-.2,15.53-7.29,17.64-5.91,1.76-12.46,3.21-18.46,2.5-16.81-1.97-33.46-5.25-50.2-7.8-22.75-3.45-45.63-5.13-68.54-2.16-15.43,2-30.89,4.28-46.05,7.69-10.94,2.46-21.36,7.16-32.12,10.55-15.28,4.82-26.43,16.15-39.41,24.59-1.59,1.03-2.77,2.71-3.61,4.98,3.44-1.42,6.95-2.68,10.3-4.27,16.53-7.84,33.88-12.19,52.18-13.07,16.32-.78,32.14,1.1,47.21,7.61,15.11,6.52,27.41,16.6,33.88,31.87,8.22,19.4,6.27,41.46-12.62,55.55-11.73,8.75-25.13,11.19-38.39,4.22-12.67-6.66-20.33-17.68-20.37-32.53-.05-17.68,14.74-34.26,32.34-35.28,17.25-1,29.35,12.71,26.23,27.22-1.57,7.32-8.68,13.18-16.05,13.63-1.49.09-3.09-1.54-4.64-2.37,1.01-1.47,1.7-3.63,3.1-4.28,6.93-3.25,9.24-6.84,7.68-13.03-1.3-5.17-8.16-9.42-14.08-8.72-13.43,1.58-23.54,14.11-20.57,27.3,3.33,14.8,17.89,23.46,33.24,16.01,19.88-9.65,21.12-32.62,12.2-48.49-10.22-18.17-27.08-26.16-46.76-30.26-15.74-3.27-31.25-2.1-46.43,1.55-11.12,2.67-22.1,6.88-32.38,11.95-12.77,6.3-25.49,13.19-36.87,21.65-12.54,9.33-23.5,20.78-35.27,31.16-1.2,1.06-3.26,1.13-4.92,1.67.26-1.76-.12-4.12.88-5.18,15-15.97,29.86-32.09,45.41-47.52,16.62-16.5,35.1-30.91,54.52-43.92,21.88-14.66,44.57-27.88,69.05-38.01,27.64-11.44,56.48-18.36,85.57-24.37,11.18-2.31,22.66-3.47,34.06-4.37,9.19-.73,14.81-6.84,21.13-12.06,8.8-7.28,16.94-15.49,26.37-21.81,9.79-6.55,21.01-10.15,33.01-5.31,5.43,2.19,6.37,7.57,2.6,12.08-7.35,8.79-16.05,15.71-26.73,20.07-1.47.6-2.73,1.71-4.09,2.59.08.56.16,1.13.24,1.69Z"/>
    <path d="m375.38,385.34c-7.45-3.45-14.78-7.21-22.38-10.27-12.74-5.14-25.51-10.32-38.56-14.59-11.97-3.91-24.2-7.23-36.53-9.77-24.66-5.09-49.69-6.37-74.86-6.76-11.39-.18-20.56,2.4-29.64,9.48-10.91,8.51-23.09,15.42-34.89,22.75-6.66,4.14-13.46,3.5-17.26-.91-2.76-3.21-3.39-6.81-.48-9.89,4.08-4.31,8.71-8.09,13.11-12.09.57-.52,1.14-1.04,1.36-2.69-3.73.7-7.53,1.14-11.17,2.15-20.84,5.81-40.91,13.58-59.37,24.96-19.65,12.12-34.63,28.62-44.76,49.5-11.5,23.71-13.31,48.28-5.68,73.22,7.7,25.17,22.72,45.43,44.51,60.42,21.01,14.45,44.65,20.49,69.8,22.17,15.82,1.06,31.32-.38,46.16-5.65,16.85-6,29.26-17.42,35.56-34.45,2.66-7.2,4.77-14.77,5.86-22.35,3.29-22.89-4.44-42.36-20.78-58.13-23.05-22.23-50.87-29.55-81.83-22.4-16.54,3.82-30.07,12.87-36.57,29.9-5.42,14.2-.96,30.81,10.45,37.84,10.87,6.7,23.45,5.13,32.17-3.65,1.04-1.05,3.52-.66,5.33-.93-.16,1.55.21,3.47-.58,4.59-6.15,8.72-15.26,11.22-25.21,10.63-28.47-1.7-37.56-29.75-30.07-50.97,7.47-21.18,23.86-31.7,44.76-36.72,26.56-6.37,51.04-.57,73.12,14.18,27.85,18.6,43.19,51.04,35.92,84.63-4.41,20.33-13.58,37.67-30.15,50.66-11.1,8.71-23.81,13.61-37.74,15.25-7.24.86-14.57,1.93-21.81,1.67-17.52-.65-34.5-4.19-50.85-10.83-18.62-7.56-35.38-17.77-49.17-32.54C14.05,533.3,2.55,509.44.31,481.34c-1.85-23.22,4.63-44.38,16.1-64.16,13.5-23.28,32.07-41.89,54.84-56.03,16.74-10.4,35.21-17.24,54.61-20.46,18.47-3.07,37.19-4.59,55.81-6.69,2.51-.28,5.08-.04,7.63-.04l.37-1.45c-3.75-2.19-7.77-4.03-11.2-6.66-6.68-5.11-13.36-10.3-19.39-16.14-4.48-4.34-2.47-10.31,3.49-12.37,11.74-4.04,22.48-.57,32.17,5.64,7.46,4.79,14.34,10.69,20.75,16.85,10.26,9.86,20.78,17.13,36.12,18.26,17.42,1.28,34.61,5.9,51.85,9.34,21.39,4.26,42.19,10.77,62.02,19.68,15.62,7.01,30.88,15.14,45.43,24.16,16.56,10.27,32.7,21.4,48.06,33.4,26.49,20.68,50.21,44.39,71.73,70.23,1.02,1.23.93,3.39,1.36,5.12-1.86-.5-4.24-.45-5.49-1.61-7.16-6.69-13.47-14.43-21.17-20.38-11.75-9.09-24.01-17.68-36.8-25.21-10.29-6.06-21.38-11.1-32.66-15.02-16.03-5.58-32.62-8.71-49.89-6.96-13.58,1.38-26.52,4.47-38.07,11.9-13.14,8.45-22.39,19.86-23.97,35.94-1.72,17.52,8.17,32.71,26.97,34.87,8.91,1.02,15.75-3.71,20.46-10.99,5.24-8.1,4.63-16.52-.6-24.38-4.95-7.45-11.88-11.5-21.17-10.01-5.53.89-9.76,5.38-10.24,10.59-.46,5.01,1.89,8.19,8.12,10.31,2.45.83,4.23,2.14,3.06,4.54-.64,1.32-3.07,2.59-4.64,2.52-12.11-.5-20.18-15.29-14.95-26.32,6.7-14.1,23.88-18.11,37.83-10.8,14.56,7.63,22.76,25.26,18.21,41.22-4.83,16.92-23.16,30.73-42.89,25.45-25.8-6.9-37.43-33.81-28.54-58.14,6.74-18.46,20.23-29.78,37.83-36.9,22.4-9.06,45.24-8.53,68.45-3.43,12.23,2.69,23.7,7.01,34.8,12.6,1.12.56,2.48.66,3.73.97.25-.38.51-.76.76-1.15-3.66-2.76-7.25-5.62-11-8.26-7.31-5.13-14.25-11.08-22.19-14.96-10.51-5.12-21.64-9.21-32.86-12.58-12.2-3.67-24.68-6.78-37.26-8.72-12.61-1.94-25.47-2.47-38.24-3-24.41-1-48.31,3.04-72.2,7.53-10.89,2.05-22.02,3.14-33.09,3.8-4.24.25-8.91-1.31-12.88-3.13-9.71-4.46-10.67-17.34-1.32-23.69,5.13-3.48,11.61-5.97,17.76-6.76,13.31-1.72,26.81-2.97,40.21-2.76,23.43.37,46.76,2.66,69.62,8.26,14.82,3.62,29.61,7.37,44.42,11.04.91.23,1.86.3,2.79.44.14-.51.28-1.01.43-1.52Z"/>
  </g>
  <g id="Layer_2" data-name="Layer 2">
    <g>
      <path d="m688.9,85.1c-35.66-23.91-94.08-19.07-123.06,21.21-12.51,17.55-13.34,36.88-5.76,56.25,9.39,23.64,43.8,35.04,64.02,14.79,13.4-13.4,12.02-35.53-7.54-43.44-3.75-1.55-7.97-2.87-9.85-2.63-2.01.13-3.75,2.14-2.57,4.35,1.22,2.24,10.64,2.5,15.31,12.09,3,6.26-2.64,18.47-9.72,21.73-6.95,3.26-18.41,2.93-24.66-2.04-12.55-9.88-11.26-25.26-7.28-33.98,11.92-26.02,49.89-37.05,82.56-24.67,13.73,5.27,25.88,19.46,30.43,31.98,10.24,28.16-1.32,58.19-22.23,84.76-9.91,12.68-19.79,23.87-33.1,36.12,7.11-6.59-47.85,37.97-70.37,87.76-5.4,11.72-9.48,25.82-12.35,37.8-2.73-11.99-6.92-26.08-12.25-37.8-22.66-49.79-77.55-94.35-70.44-87.76-13.3-12.25-23.18-23.45-33.09-36.12-20.95-26.57-32.5-56.61-22.2-84.76,4.54-12.51,16.6-26.71,30.39-31.98,32.57-12.38,70.6-1.35,82.59,24.67,3.92,8.73,5.2,24.11-7.34,33.98-6.19,4.97-17.65,5.3-24.73,2.04-7.01-3.26-12.64-15.48-9.62-21.73,4.64-9.58,14.06-9.85,15.25-12.09,1.19-2.21-.53-4.22-2.57-4.35-1.85-.23-6.09,1.09-9.78,2.63-19.59,7.9-20.98,30.03-7.51,43.44,20.25,20.25,54.57,8.86,63.89-14.79,7.67-19.36,6.82-38.69-5.76-56.25-28.91-40.27-87.33-45.12-122.93-21.21-42.48,28.42-41.26,81.4-25.19,118.98,7.15,16.56,18.24,32.44,34.51,48.01,14.39,13.8,30.56,26.38,43.67,38.26,11.82,10.74,32.9,31.12,45.05,46.93,11.62,15.05,14.26,23.48,19.82,36.12,2.53,5.7,7.38,18.61,11.03,34.81.92,4.48,2.37,11.3,3.1,13.96.66,2.47,2.31,3.72,4.08,3.69h.13c1.65.03,3.36-1.22,3.98-3.69.86-2.67,2.24-9.48,3.23-13.96,3.59-16.2,8.4-29.11,10.9-34.81,5.63-12.65,8.23-21.08,19.82-36.12,12.15-15.81,33.26-36.19,45.05-46.93,13.21-11.89,29.24-24.47,43.73-38.26,16.37-15.58,27.43-31.45,34.51-48.01,16.14-37.57,17.26-90.56-25.16-118.98"/>
      <path d="m603.73,1.45l-22.94,26.28-.75.89c.26.19.53.4.77.62,1.6,1.42,2.61,3.48,2.61,5.8,0,4.27-3.48,7.74-7.76,7.74s-7.74-3.47-7.74-7.74c0-2.57,1.23-4.84,3.15-6.25,0,0-16.67-27.49-17.57-28.41-.93-.91-1.54.05-1.54.05l-18.02,28.18c2.04,1.41,3.38,3.74,3.38,6.42,0,4.27-3.46,7.74-7.75,7.74s-7.75-3.47-7.75-7.74c0-2.6,1.28-4.89,3.23-6.3l-23.23-27.18s-1.23-.54-1.08.65c.15,1.18,16.43,68.22,16.43,68.22h71.12s16.53-67.31,16.52-68.39c0-1.08-1.07-.6-1.07-.6"/>
    </g>
  </g>
</svg>