<?xml version="1.0" encoding="utf-8"?>
<!-- Generator: Adobe Illustrator 27.5.0, SVG Export Plug-In . SVG Version: 6.00 Build 0)  -->
<svg version="1.1" id="Layer_1" xmlns="http://www.w3.org/2000/svg" xmlns:xlink="http://www.w3.org/1999/xlink" x="0px" y="0px"
	 viewBox="0 0 486.9 340.7" style="enable-background:new 0 0 486.9 340.7;" xml:space="preserve">
<g>
	<g>
		<path d="M486.9,242.3c-0.1-1.7-0.2-3.5-0.3-5.2c0-0.5,0-1,0-1.5c-0.1,0-0.2,0-0.3,0c-0.1,1.3-0.4,2.5-0.3,3.8
			c0.2,5.6-0.4,11.2-1.6,16.7c-1.4,6.5-3.2,12.8-5.7,19c-3.2,8.2-7.4,15.9-13,22.7c-7.7,9.5-16.8,17.2-27.3,23.5
			c-9.8,5.9-20.4,9.9-31.3,13.1c-4.9,1.4-10,2.6-15,3.4c-6.1,1-12.3,1.4-18.4,2.1c-7,0.8-14,0.8-21,0.5c-5.4-0.3-10.8-0.9-16.2-1.4
			c-4.4-0.5-8.8-0.9-13.1-1.7c-6.8-1.3-13.5-2.8-20.3-4.4c-9.6-2.3-19.2-5.1-28.4-8.8c-8.1-3.3-16.1-6.7-24.1-10
			c-2.8-1.2-4.9-3-5.7-6c-1.4-5.2,1.9-10.1,6.9-10.9c2-0.3,3.9,0,5.7,0.8c7,3,14,6.3,21.2,9c7.4,2.8,14.9,5.2,22.4,7.4
			c6.2,1.8,12.6,3.3,18.9,4.7c4.9,1,9.9,1.7,14.9,2.4c5.8,0.7,11.6,1.3,17.5,1.7c3.6,0.2,7.2,0.2,10.7,0.1
			c5.8-0.2,11.7-0.3,17.5-1.1c7.1-1,14.2-2.2,21.1-4c8.2-2.1,16.1-5.3,23.6-9.4c6-3.3,11.6-7,16.9-11.5c9.5-8,16.1-17.9,20.6-29.3
			c0.1-0.3,0.1-0.5,0.3-1.2c-0.5,0.4-0.9,0.6-1.2,0.8c-5.5,4.9-11.7,8.5-18.3,11.7c-8.8,4.4-18.1,7.1-27.7,9.2
			c-6.5,1.4-13,2.5-19.7,2.7c-6.5,0.2-13,0.6-19.5,0.7c-4.1,0-8.2-0.4-12.3-0.7c-4.5-0.4-9.1-0.8-13.6-1.4
			c-8.4-1.1-16.7-2.6-24.9-4.7c-8.9-2.2-17.7-4.6-26.4-7.7c-2.8-1-5.6-1.9-8.4-3.1c-5.6-2.3-7.3-9.1-3.5-13.7
			c2.5-2.9,6.3-3.9,9.9-2.6c7.6,2.6,15.2,5.3,22.9,7.6c6.1,1.8,12.3,3.3,18.5,4.6c5.9,1.2,12,2,17.9,2.8c3.5,0.5,6.9,0.9,10.4,1
			c8.2,0.2,16.5,0.6,24.7,0.2c10-0.5,20-2,29.6-4.9c7.6-2.3,14.8-5.5,21.5-9.6c6.5-3.9,12-8.9,16.3-15.1c3.5-5.1,6-10.6,7.1-16.7
			c1.7-9.6,0.8-18.9-2.4-28c-3.5-10.2-8.6-19.6-15.1-28.2c-7.6-10.1-16.3-19.3-26-27.4c-8.4-7.1-17.3-13.5-26.7-19.2
			c-5.8-3.5-11.6-7-17.6-10.1c-6-3.1-12.2-5.7-18.3-8.4c-1.8-0.8-3.6-1.5-5.4-2.2c-4.1-1.6-6.4-5.9-5.5-10.2c1-4.2,5.1-7.2,9.5-6.7
			c1.6,0.2,3.2,0.8,4.7,1.5c12.9,5.3,25.4,11.4,37.3,18.4c8.7,5.1,17,10.8,25,16.9c8.1,6.1,15.5,12.9,22.6,20.1
			c7.9,8,14.8,16.7,20.7,26.2c4.7,7.6,8.7,15.6,11.3,24.2c1.2,4,2.1,8,3,12c0.7,3.1,1.4,6.2,1.8,9.4c0.3,2.5,0.2,5.1,0.2,7.7
			c0,1.1,0,2.2,0,3.3c0.2,0,0.3,0,0.5,0c0.2-1.9,0.4-3.8,0.5-5.7C486.9,228.3,486.9,235.3,486.9,242.3z"/>
		<path d="M339.3,113.4c0.2,7.6-0.4,15-1.7,22.4c-1.1,6.7-2.7,13.3-4.3,19.9c-2.6,10.5-6.5,20.6-11,30.4c-3.2,7-6.8,13.8-10.6,20.5
			c-9.2,15.8-20,30.5-32.1,44.2c-8.9,10.1-18.4,19.8-28.7,28.5c-6.9,5.8-13.9,11.5-21.1,16.9c-7.9,6-16.4,11.2-25.1,16.2
			c-8.7,5-17.7,9.4-27.1,13.1c-10.3,4.1-20.9,7.4-31.7,9.6c-5.6,1.1-11.3,2.1-16.9,2.7c-5.8,0.6-11.6,1-17.4,1
			c-4.7,0-9.5-0.4-14.1-1.1c-5.5-0.8-11-1.8-16.4-3.2c-9.1-2.3-17.7-6-25.8-10.9c-8.2-5-15.4-11.2-21.8-18.4
			c-6.2-7-11.8-14.5-16.5-22.6c-5-8.6-9-17.7-11.6-27.2c-2.6-9.4-4.5-19-5-28.9c-0.4-7.9-0.1-15.8,1-23.7c1.7-12.2,4.8-24,9.2-35.5
			c4.8-12.8,10.8-25.1,17.9-36.9c6.5-10.8,13.5-21.1,21.3-31c11-14,23.3-26.7,36.5-38.7c5.5-5,11.3-9.7,17.2-14.2
			c5.9-4.5,12-8.6,18.2-12.7c4.3-2.9,8.8-5.7,13.3-8.3c8.7-5.1,17.8-9.4,27.2-13.2c4.1-1.6,8.4-2.9,12.5-4.4
			c7.2-2.6,14.7-4.4,22.2-5.9c8.2-1.7,16.5-2.2,24.9-2c4.1,0.1,8.3-0.1,12.3,0.5c6.4,0.9,12.8,2.2,19.1,3.7
			c6.5,1.5,12.8,3.7,18.9,6.6c4.5,2.2,9.1,4.4,13.5,7c12,7.1,22.6,15.9,31.5,26.7c6.1,7.4,11.1,15.5,14.4,24.6
			c1.7,4.7,3.3,9.4,4.6,14.2c1.6,5.8,2.7,11.8,3.1,17.9C339.1,105.2,339.1,109.3,339.3,113.4z M78.2,281c3.5-0.2,7.1-0.4,10.6-0.8
			c8.5-0.8,16.8-2.6,25-5c18.2-5.4,35.2-13.7,51.2-23.8c12.7-8,24.5-17,35.7-27c14.2-12.6,27.1-26.5,38.5-41.6
			c11-14.6,20.6-30.1,28-46.9c7.2-16.2,12.4-33,13.7-50.7c0.7-9.2,0.2-18.3-2.1-27.3c-3.5-13.4-10.7-24.2-22.6-31.6
			c-9.3-5.8-19.7-8.3-30.5-8.9c-9.5-0.5-18.9,0.4-28.2,2.3c-10,2.1-19.7,5.2-29.2,9c-16.3,6.6-31.4,15.3-45.7,25.4
			c-23.4,16.5-43.8,36.2-61.3,58.8c-15.3,19.8-27.9,41.1-36.1,64.9c-5.5,15.9-8.9,32.2-7.6,49.2c0.5,7.3,2,14.5,4.8,21.2
			c5.5,13.1,14.8,22.4,28,27.8C59.3,279.6,68.6,280.8,78.2,281z M293.5,45.8c0.1,0.5,0.1,0.7,0.1,0.9c2.4,6.5,3.8,13.3,4.5,20.2
			c0.7,6.9,0.9,13.9,0.1,20.8c-0.6,5.2-1.2,10.5-2.2,15.6c-2.9,14.8-7.9,28.9-14.2,42.6c-8.6,18.6-19.5,35.7-32.2,51.8
			c-17.2,21.9-37,41.1-59.5,57.5c-13.2,9.7-27.2,18.2-42,25.2c-16.1,7.6-32.8,13.5-50.5,16.2c-8.6,1.3-17.3,2-26.1,1.4
			c-8.5-0.5-16.8-2-24.8-4.9c-0.2-0.1-0.4-0.1-1.1-0.1c1.1,1.1,1.9,1.9,2.6,2.8c9.8,10.5,21.7,17.4,35.3,21.5
			c14,4.1,28.3,4.9,42.8,3.4c9.1-0.9,18-2.8,26.8-5.3c15.2-4.4,29.6-10.8,43.3-18.6c17.7-10.1,33.7-22.3,48.6-36.1
			c17.7-16.4,33.3-34.6,46.2-55c11.3-17.9,20.2-36.8,25.6-57.4c2.5-9.5,4.1-19.1,4.6-28.9c0.5-10.8-0.2-21.4-2.9-32
			c-4-16.1-11.9-29.8-24.3-40.9C294.3,46.4,294,46.2,293.5,45.8z"/>
		<path d="M350.6,133.3c-0.3-4,3.7-8.7,8.3-8.7c2.8,0,5.1,1.1,7.5,2.3c7.8,3.7,15.3,7.9,22.5,12.5c8.8,5.6,17.2,11.8,25.1,18.6
			c6.2,5.4,12.1,11.1,17.6,17.3c6.5,7.3,12.4,15.2,17.4,23.6c4.5,7.7,8.4,15.7,10.9,24.3c1.2,4-0.7,7.9-4.6,9.9
			c-3.7,1.8-8.1,0.8-10.4-2.3c-0.8-1.1-1.4-2.3-1.8-3.5c-3.7-10.5-8.9-20.1-15.4-29c-5.5-7.5-11.4-14.7-18.3-21
			c-9.8-9-20.3-17.2-31.8-24.2c-6.8-4.1-13.7-7.9-20.9-11.3c-2.8-1.3-5-3.2-5.8-6.3C350.7,134.7,350.7,134,350.6,133.3z"/>
		<path d="M50.6,238.8c0,2.2,0,4.4,0,6.6c0,4.8-3.7,8.6-8.5,8.8c-4.7,0.1-8.6-3.6-8.9-8.3c-1-16.2,1.3-32.1,5.6-47.7
			c6.6-24,17.9-45.8,32.2-66.1c13.4-19,29.3-35.8,47.2-50.6c15.3-12.6,31.8-23.2,49.8-31.7c13.6-6.4,27.7-11.2,42.4-14.2
			c11.5-2.4,23.2-3.3,34.9-2.8c1.6,0.1,3.1,0.2,4.7,0.4c4.9,0.6,8.2,4.9,7.6,9.8c-0.5,4.6-4.8,8-9.6,7.5
			c-10.1-0.9-20.1-0.2-30.1,1.5c-12.2,2.1-24,5.7-35.4,10.4c-17.7,7.4-33.9,17.4-49,29.1c-13.1,10.2-25,21.7-35.8,34.4
			c-15.3,18.1-27.8,37.9-36.6,60c-4.5,11.5-7.9,23.2-9.5,35.4c-0.8,5.8-1.1,11.6-1.6,17.3C50.2,238.8,50.4,238.8,50.6,238.8z"/>
		<path d="M164.8,149.2c-0.2,0.3-0.4,0.5-0.5,0.6c-4.3,10.5-6.2,21.4-5.4,32.7c1,13.4,5,25.8,11.1,37.6c1.1,2.2,1.8,4.4,1.3,6.8
			c-0.7,3.5-3.6,6.3-7,6.8c-3.9,0.6-7.5-0.9-9.2-4.4c-2.2-4.2-4.2-8.6-6-13c-3.2-7.7-5.4-15.7-6.7-23.9c-1.1-7.2-1.4-14.5-0.9-21.8
			c1.1-16.2,7-30.8,15.3-44.5c9.5-15.7,22.4-28.2,37.8-38.2c12.3-7.9,25.7-12.8,39.9-15.7c7.8-1.6,15.7-2.3,23.6-3
			c6.4-0.5,10.2,4.5,10.1,9c-0.2,4.8-3.9,8.3-9.1,8.5c-12.8,0.6-25.3,2.7-37.4,7.1c-10.3,3.7-19.6,8.9-27.2,17
			c-7.6,8.1-11.8,17.7-12.4,28.9c-0.5,8.9,1.4,17.5,4.7,25.7c4,10.2,9.8,19.4,16.6,27.9c2.6,3.3,2.7,8,0.1,11
			c-2.8,3.3-7.4,4.2-11,2.2c-1-0.6-1.9-1.4-2.6-2.2c-9.3-11.5-16.8-24-21.4-38.2c-1.7-5.2-2.9-10.5-3.4-16
			C165.1,150,164.9,149.7,164.8,149.2z"/>
		<path d="M252.5,103.5c5.3,0,9,3.3,9.5,7.8c0.5,4.3-2.4,8.5-6.7,9.5c-2.4,0.5-4.9,0.6-7.3,0.9c-8.3,0.9-16.4,2.5-24.3,5.2
			c-5.4,1.9-10.6,4.2-15.9,6.4c-5.5,2.4-11.2-0.5-12.5-6.3c-0.8-3.7,1.2-7.5,4.8-9.4c5.9-3,12-5.5,18.3-7.4
			c9.8-3.1,19.7-5.1,29.9-6.1C250,103.8,251.6,103.6,252.5,103.5z"/>
	</g>
</g>
</svg>
