<?xml version="1.0" encoding="utf-8"?>
<!-- Generator: Adobe Illustrator 27.5.0, SVG Export Plug-In . SVG Version: 6.00 Build 0)  -->
<svg version="1.1" id="Layer_1" xmlns="http://www.w3.org/2000/svg" xmlns:xlink="http://www.w3.org/1999/xlink" x="0px" y="0px"
	 viewBox="0 0 2048 2048" style="enable-background:new 0 0 2048 2048;" xml:space="preserve">
<style type="text/css">
	.st0{fill:#FFFFFF;}
</style>
<g>
	<g>
		<path class="st0" d="M652.34,323.21c0,33.23,0,66.46,0,99.7c-162.65,0-325.29,0-487.94,0c0-114.32,0-228.64,0-342.96
			c162.65,0,325.29,0,487.94,0c0,74.11,0,148.22,0,222.32c-0.18,1.91-0.36,3.83-0.54,5.74c-0.16,0-0.33-0.01-0.49-0.01
			c0-1.09,0.02-2.19,0-3.28c-0.05-2.57,0.08-5.17-0.24-7.7c-0.39-3.15-1.07-6.27-1.78-9.37c-0.92-4.03-1.86-8.07-3.04-12.02
			c-2.57-8.6-6.55-16.56-11.29-24.15c-5.94-9.51-12.87-18.24-20.74-26.23c-7.09-7.2-14.55-13.97-22.61-20.09
			c-8.04-6.11-16.35-11.8-25.04-16.93c-11.99-7.09-24.48-13.14-37.35-18.44c-1.53-0.63-3.12-1.27-4.73-1.47
			c-4.4-0.56-8.54,2.45-9.5,6.69c-0.96,4.24,1.35,8.54,5.45,10.17c1.81,0.72,3.64,1.4,5.41,2.2c6.12,2.76,12.33,5.36,18.3,8.43
			c6.01,3.09,11.82,6.57,17.61,10.05c9.42,5.66,18.26,12.14,26.68,19.19c9.71,8.14,18.4,17.28,26.03,27.41
			c6.49,8.62,11.54,17.98,15.08,28.18c3.18,9.16,4.11,18.47,2.37,28.05c-1.11,6.11-3.6,11.64-7.07,16.71
			c-4.27,6.26-9.81,11.22-16.29,15.15c-6.78,4.11-13.95,7.35-21.53,9.61c-9.66,2.89-19.6,4.44-29.63,4.91
			c-8.2,0.39-16.44,0-24.66-0.21c-3.48-0.09-6.96-0.5-10.41-0.97c-6-0.83-12.01-1.6-17.94-2.8c-6.24-1.26-12.45-2.75-18.55-4.56
			c-7.7-2.29-15.28-4.96-22.88-7.56c-3.63-1.24-7.48-0.32-9.93,2.61c-3.79,4.54-2.09,11.35,3.49,13.66
			c2.75,1.14,5.59,2.07,8.39,3.06c8.64,3.06,17.47,5.46,26.36,7.68c8.22,2.05,16.53,3.57,24.92,4.68c4.52,0.6,9.07,0.98,13.62,1.35
			c4.1,0.33,8.21,0.74,12.31,0.71c6.51-0.05,13.02-0.49,19.54-0.66c6.67-0.17,13.22-1.31,19.7-2.69c9.54-2.03,18.87-4.79,27.67-9.16
			c6.54-3.24,12.78-6.89,18.27-11.74c0.28-0.25,0.61-0.44,1.17-0.83c-0.15,0.62-0.19,0.9-0.29,1.16
			c-4.49,11.44-11.13,21.34-20.61,29.31c-5.24,4.41-10.85,8.19-16.86,11.45c-7.51,4.07-15.39,7.31-23.64,9.39
			c-6.93,1.75-14.02,3.04-21.11,4c-5.78,0.78-11.67,0.85-17.51,1.08c-3.57,0.14-7.16,0.19-10.72-0.06
			c-5.83-0.41-11.66-0.98-17.47-1.7c-4.98-0.61-9.96-1.32-14.86-2.35c-6.35-1.35-12.7-2.84-18.92-4.68
			c-7.54-2.23-15.05-4.64-22.4-7.42c-7.17-2.7-14.13-5.96-21.18-8.98c-1.83-0.78-3.63-1.07-5.67-0.77c-5,0.74-8.24,5.64-6.88,10.86
			c0.79,3.04,2.92,4.86,5.68,6.02c8.02,3.38,16.05,6.77,24.11,10.05c9.19,3.75,18.7,6.53,28.35,8.81
			c6.73,1.59,13.48,3.12,20.27,4.42c4.31,0.82,8.7,1.23,13.07,1.69c5.4,0.57,10.81,1.16,16.23,1.44c7.01,0.36,14.03,0.39,21.03-0.45
			c6.13-0.74,12.31-1.17,18.41-2.15c5.06-0.82,10.09-2,15.02-3.43c10.94-3.15,21.51-7.18,31.35-13.09
			c10.49-6.3,19.67-14.02,27.34-23.52c5.53-6.85,9.74-14.49,12.95-22.7c2.42-6.2,4.27-12.54,5.65-19.03
			c1.17-5.5,1.77-11.04,1.57-16.67c-0.05-1.26,0.21-2.53,0.32-3.79c0.1,0.01,0.21,0.02,0.31,0.03c0,0.5-0.02,0.99,0,1.49
			C652.11,319.75,652.23,321.48,652.34,323.21z M504.73,194.29c-0.14-4.11-0.14-8.22-0.45-12.32c-0.47-6.04-1.53-12.01-3.12-17.85
			c-1.3-4.78-2.87-9.51-4.58-14.16c-3.32-9.04-8.27-17.19-14.42-24.58c-8.93-10.74-19.55-19.54-31.52-26.68
			c-4.34-2.58-8.93-4.76-13.48-6.96c-6.02-2.92-12.34-5.12-18.85-6.63c-6.33-1.46-12.72-2.75-19.15-3.68
			c-4.04-0.59-8.2-0.46-12.31-0.51c-8.36-0.11-16.67,0.33-24.89,2.04c-7.51,1.57-14.95,3.32-22.18,5.95
			c-4.16,1.52-8.42,2.79-12.53,4.43c-9.37,3.74-18.45,8.12-27.18,13.19c-4.52,2.63-8.96,5.4-13.3,8.31
			c-6.13,4.11-12.29,8.21-18.17,12.68c-5.91,4.49-11.69,9.2-17.18,14.2c-13.12,11.97-25.45,24.68-36.46,38.68
			c-7.77,9.88-14.8,20.21-21.29,30.96c-7.1,11.76-13.08,24.03-17.92,36.86c-4.34,11.5-7.47,23.33-9.17,35.54
			c-1.1,7.89-1.34,15.78-0.96,23.72c0.47,9.82,2.35,19.42,4.97,28.85c2.66,9.57,6.64,18.63,11.64,27.25
			c4.71,8.12,10.22,15.62,16.47,22.61c6.41,7.16,13.63,13.36,21.84,18.39c8.05,4.93,16.64,8.65,25.77,10.94
			c5.41,1.36,10.93,2.37,16.45,3.17c4.67,0.67,9.42,1.1,14.14,1.09c5.8,0,11.63-0.34,17.4-0.95c5.68-0.6,11.34-1.53,16.94-2.67
			c10.87-2.21,21.42-5.57,31.73-9.65c9.35-3.7,18.34-8.13,27.07-13.13c8.65-4.96,17.17-10.14,25.09-16.19
			c7.16-5.46,14.2-11.1,21.07-16.92c10.32-8.74,19.79-18.38,28.72-28.52c12.07-13.71,22.92-28.32,32.09-44.16
			c3.87-6.68,7.37-13.53,10.62-20.51c4.57-9.81,8.47-19.91,11.05-30.44c1.61-6.59,3.18-13.22,4.33-19.9
			C504.31,209.34,504.97,201.84,504.73,194.29z M516.06,214.2c0.1,0.69,0.15,1.4,0.32,2.08c0.79,3.17,2.99,5.01,5.84,6.34
			c7.18,3.36,14.13,7.16,20.9,11.29c11.43,6.97,21.94,15.14,31.76,24.19c6.85,6.31,12.81,13.48,18.27,21.03
			c6.48,8.96,11.71,18.58,15.37,29.03c0.43,1.23,1.09,2.43,1.85,3.49c2.3,3.18,6.72,4.12,10.4,2.34c3.97-1.93,5.82-5.84,4.64-9.86
			c-2.52-8.61-6.38-16.61-10.93-24.32c-5-8.47-10.84-16.31-17.39-23.63c-5.49-6.13-11.35-11.89-17.58-17.29
			c-7.9-6.83-16.28-13-25.09-18.59c-7.26-4.61-14.76-8.77-22.52-12.48c-2.38-1.14-4.67-2.24-7.51-2.28
			C519.71,205.46,515.77,210.22,516.06,214.2z"/>
		<path d="M652.34,323.21c-0.11-1.73-0.23-3.46-0.33-5.19c-0.03-0.49,0-0.99,0-1.49c-0.1-0.01-0.21-0.02-0.31-0.03
			c-0.11,1.26-0.37,2.53-0.32,3.79c0.2,5.63-0.4,11.18-1.57,16.67c-1.38,6.49-3.23,12.84-5.65,19.03
			c-3.21,8.22-7.41,15.85-12.95,22.7c-7.67,9.5-16.85,17.22-27.34,23.52c-9.84,5.91-20.41,9.93-31.35,13.09
			c-4.93,1.42-9.96,2.61-15.02,3.43c-6.09,0.98-12.27,1.42-18.41,2.15c-7,0.84-14.02,0.81-21.03,0.45
			c-5.42-0.28-10.83-0.88-16.23-1.44c-4.37-0.46-8.76-0.87-13.07-1.69c-6.79-1.29-13.54-2.82-20.27-4.42
			c-9.65-2.29-19.16-5.07-28.35-8.81c-8.06-3.29-16.08-6.67-24.11-10.05c-2.76-1.16-4.89-2.98-5.68-6.02
			c-1.36-5.22,1.88-10.12,6.88-10.86c2.04-0.3,3.85-0.02,5.67,0.77c7.05,3.03,14.01,6.28,21.18,8.98c7.35,2.77,14.86,5.19,22.4,7.42
			c6.23,1.84,12.57,3.34,18.92,4.68c4.9,1.04,9.88,1.74,14.86,2.35c5.8,0.72,11.63,1.29,17.47,1.7c3.56,0.25,7.15,0.2,10.72,0.06
			c5.85-0.23,11.73-0.3,17.51-1.08c7.09-0.96,14.17-2.24,21.11-4c8.25-2.09,16.13-5.32,23.64-9.39c6-3.26,11.62-7.04,16.86-11.45
			c9.48-7.97,16.12-17.86,20.61-29.31c0.1-0.26,0.14-0.54,0.29-1.16c-0.55,0.39-0.88,0.59-1.17,0.83
			c-5.49,4.85-11.73,8.5-18.27,11.74c-8.8,4.37-18.14,7.13-27.67,9.16c-6.47,1.38-13.03,2.52-19.7,2.69
			c-6.51,0.17-13.02,0.61-19.54,0.66c-4.1,0.03-8.21-0.38-12.31-0.71c-4.55-0.37-9.1-0.76-13.62-1.35
			c-8.39-1.11-16.7-2.63-24.92-4.68c-8.89-2.22-17.72-4.62-26.36-7.68c-2.81-0.99-5.64-1.93-8.39-3.06
			c-5.58-2.31-7.28-9.12-3.49-13.66c2.45-2.93,6.3-3.85,9.93-2.61c7.6,2.6,15.19,5.27,22.88,7.56c6.1,1.81,12.31,3.31,18.55,4.56
			c5.93,1.2,11.95,1.97,17.94,2.8c3.45,0.48,6.93,0.88,10.41,0.97c8.22,0.21,16.46,0.6,24.66,0.21c10.03-0.48,19.97-2.02,29.63-4.91
			c7.58-2.27,14.75-5.5,21.53-9.61c6.49-3.94,12.02-8.9,16.29-15.15c3.46-5.07,5.96-10.6,7.07-16.71
			c1.74-9.57,0.81-18.89-2.37-28.05c-3.54-10.19-8.59-19.56-15.08-28.18c-7.63-10.14-16.32-19.27-26.03-27.41
			c-8.41-7.05-17.26-13.54-26.68-19.19c-5.79-3.48-11.61-6.96-17.61-10.05c-5.97-3.07-12.18-5.66-18.3-8.43
			c-1.77-0.8-3.6-1.49-5.41-2.2c-4.1-1.62-6.41-5.93-5.45-10.17c0.96-4.23,5.1-7.25,9.5-6.69c1.62,0.2,3.21,0.84,4.73,1.47
			c12.87,5.3,25.36,11.36,37.35,18.44c8.69,5.14,17,10.82,25.04,16.93c8.06,6.12,15.52,12.9,22.61,20.09
			c7.87,7.99,14.8,16.72,20.74,26.23c4.74,7.59,8.72,15.56,11.29,24.15c1.18,3.96,2.12,8,3.04,12.02c0.71,3.1,1.39,6.22,1.78,9.37
			c0.31,2.54,0.18,5.13,0.24,7.7c0.02,1.09,0,2.19,0,3.28c0.16,0,0.33,0.01,0.49,0.01c0.18-1.91,0.36-3.83,0.54-5.74
			C652.34,309.25,652.34,316.23,652.34,323.21z"/>
		<path d="M504.73,194.29c0.24,7.55-0.43,15.04-1.7,22.45c-1.15,6.68-2.72,13.31-4.33,19.9c-2.58,10.54-6.48,20.63-11.05,30.44
			c-3.25,6.98-6.75,13.83-10.62,20.51c-9.17,15.84-20.01,30.46-32.09,44.16c-8.93,10.14-18.4,19.78-28.72,28.52
			c-6.87,5.82-13.91,11.46-21.07,16.92c-7.93,6.05-16.44,11.23-25.09,16.19c-8.73,5-17.72,9.43-27.07,13.13
			c-10.31,4.08-20.86,7.44-31.73,9.65c-5.6,1.14-11.26,2.07-16.94,2.67c-5.77,0.61-11.6,0.95-17.4,0.95
			c-4.72,0-9.47-0.42-14.14-1.09c-5.52-0.79-11.04-1.81-16.45-3.17c-9.14-2.29-17.73-6.01-25.77-10.94
			c-8.21-5.03-15.43-11.23-21.84-18.39c-6.25-6.99-11.76-14.49-16.47-22.61c-5.01-8.62-8.98-17.68-11.64-27.25
			c-2.62-9.43-4.5-19.03-4.97-28.85c-0.38-7.94-0.13-15.83,0.96-23.72c1.7-12.21,4.83-24.03,9.17-35.54
			c4.84-12.83,10.82-25.1,17.92-36.86c6.49-10.75,13.52-21.08,21.29-30.96c11-13.99,23.34-26.71,36.46-38.68
			c5.48-5,11.27-9.71,17.18-14.2c5.88-4.46,12.03-8.57,18.17-12.68c4.34-2.91,8.78-5.68,13.3-8.31c8.73-5.07,17.81-9.45,27.18-13.19
			c4.11-1.64,8.37-2.91,12.53-4.43c7.22-2.63,14.66-4.39,22.18-5.95c8.23-1.72,16.54-2.15,24.89-2.04
			c4.11,0.05,8.26-0.07,12.31,0.51c6.43,0.93,12.82,2.22,19.15,3.68c6.51,1.5,12.83,3.71,18.85,6.63c4.55,2.21,9.14,4.38,13.48,6.96
			c11.97,7.13,22.59,15.94,31.52,26.68c6.15,7.39,11.09,15.54,14.42,24.58c1.71,4.66,3.28,9.38,4.58,14.16
			c1.59,5.84,2.66,11.81,3.12,17.85C504.6,186.07,504.59,190.18,504.73,194.29z M243.63,361.9c3.52-0.25,7.05-0.43,10.56-0.75
			c8.5-0.78,16.8-2.59,24.96-5.03c18.22-5.44,35.16-13.68,51.2-23.81c12.67-8,24.55-17.05,35.74-27.02
			c14.19-12.65,27.08-26.47,38.53-41.64c11.05-14.63,20.58-30.15,28.05-46.91c7.21-16.21,12.38-32.96,13.74-50.74
			c0.71-9.21,0.23-18.34-2.12-27.29c-3.5-13.38-10.68-24.21-22.56-31.63c-9.31-5.82-19.66-8.28-30.49-8.9
			c-9.5-0.54-18.91,0.39-28.23,2.32c-10.02,2.07-19.72,5.15-29.19,9.01c-16.26,6.63-31.42,15.26-45.73,25.39
			c-23.37,16.54-43.78,36.17-61.31,58.79c-15.33,19.78-27.89,41.12-36.09,64.86c-5.5,15.92-8.86,32.21-7.65,49.19
			c0.52,7.33,1.96,14.45,4.79,21.25c5.48,13.14,14.81,22.45,28.01,27.84C224.75,360.46,234.08,361.75,243.63,361.9z M459,126.72
			c0.08,0.51,0.08,0.71,0.15,0.88c2.44,6.53,3.78,13.31,4.5,20.21c0.73,6.91,0.86,13.85,0.06,20.76c-0.6,5.22-1.17,10.47-2.17,15.63
			c-2.87,14.8-7.85,28.93-14.2,42.59c-8.63,18.57-19.51,35.75-32.17,51.82c-17.22,21.86-37.02,41.08-59.46,57.55
			c-13.22,9.7-27.16,18.21-42,25.24c-16.12,7.64-32.82,13.46-50.51,16.21c-8.64,1.34-17.31,1.98-26.06,1.42
			c-8.5-0.54-16.8-1.95-24.82-4.85c-0.2-0.07-0.43-0.06-1.06-0.14c1.05,1.09,1.86,1.91,2.64,2.75
			c9.75,10.49,21.67,17.42,35.32,21.47c14.02,4.15,28.33,4.9,42.81,3.43c9.1-0.93,18.03-2.78,26.81-5.32
			c15.23-4.4,29.6-10.78,43.34-18.62c17.66-10.07,33.74-22.26,48.61-36.09c17.67-16.43,33.31-34.56,46.24-54.96
			c11.32-17.87,20.22-36.83,25.57-57.37c2.47-9.5,4.12-19.14,4.57-28.94c0.5-10.78-0.22-21.45-2.87-31.98
			c-4.03-16.07-11.91-29.79-24.26-40.9C459.8,127.28,459.51,127.1,459,126.72z"/>
		<path d="M516.06,214.2c-0.29-3.97,3.66-8.73,8.34-8.66c2.84,0.04,5.13,1.14,7.51,2.28c7.75,3.72,15.26,7.88,22.52,12.48
			c8.81,5.59,17.19,11.76,25.09,18.59c6.23,5.39,12.09,11.15,17.58,17.29c6.55,7.32,12.39,15.16,17.39,23.63
			c4.55,7.7,8.41,15.71,10.93,24.32c1.18,4.02-0.68,7.93-4.64,9.86c-3.68,1.79-8.09,0.84-10.4-2.34c-0.77-1.06-1.42-2.26-1.85-3.49
			c-3.66-10.45-8.88-20.07-15.37-29.03c-5.47-7.55-11.42-14.72-18.27-21.03c-9.82-9.04-20.34-17.21-31.76-24.19
			c-6.77-4.13-13.72-7.93-20.9-11.29c-2.85-1.33-5.05-3.18-5.84-6.34C516.2,215.6,516.16,214.89,516.06,214.2z"/>
		<path class="st0" d="M243.63,361.9c-9.56-0.15-18.88-1.44-27.78-5.08c-13.2-5.39-22.54-14.7-28.01-27.84
			c-2.83-6.8-4.27-13.92-4.79-21.25c-1.2-16.98,2.16-33.27,7.65-49.19c8.2-23.73,20.76-45.07,36.09-64.86
			c17.53-22.62,37.94-42.26,61.31-58.79c14.31-10.13,29.47-18.76,45.73-25.39c9.47-3.86,19.17-6.94,29.19-9.01
			c9.31-1.93,18.73-2.86,28.23-2.32c10.83,0.62,21.18,3.08,30.49,8.9c11.88,7.42,19.06,18.25,22.56,31.63
			c2.34,8.96,2.82,18.08,2.12,27.29c-1.37,17.79-6.53,34.54-13.74,50.74c-7.46,16.77-17,32.28-28.05,46.91
			c-11.45,15.17-24.35,28.99-38.53,41.64c-11.19,9.98-23.07,19.02-35.74,27.02c-16.04,10.13-32.98,18.36-51.2,23.81
			c-8.16,2.44-16.46,4.25-24.96,5.03C250.68,361.47,247.15,361.66,243.63,361.9z M216.03,319.74c-0.16-0.01-0.33-0.02-0.49-0.03
			c0.51-5.78,0.8-11.6,1.57-17.34c1.64-12.21,5.01-24,9.54-35.44c8.74-22.09,21.22-41.94,36.55-60.02
			c10.75-12.68,22.67-24.17,35.77-34.43c15.08-11.8,31.28-21.74,48.98-29.15c11.4-4.77,23.15-8.36,35.36-10.43
			c10-1.7,20.03-2.38,30.15-1.47c4.81,0.43,9.03-2.92,9.57-7.52c0.57-4.91-2.72-9.18-7.6-9.81c-1.56-0.2-3.14-0.36-4.71-0.43
			c-11.76-0.51-23.41,0.44-34.93,2.8c-14.7,3.01-28.79,7.86-42.36,14.22c-17.96,8.42-34.5,19.08-49.8,31.66
			c-17.97,14.78-33.81,31.57-47.24,50.59c-14.33,20.28-25.54,42.08-32.18,66.12c-4.32,15.63-6.57,31.48-5.59,47.73
			c0.28,4.7,4.23,8.44,8.89,8.32c4.8-0.12,8.55-3.98,8.53-8.77C216.03,324.14,216.03,321.94,216.03,319.74z M330.29,230.12
			c0.13,0.49,0.25,0.78,0.28,1.09c0.53,5.47,1.76,10.79,3.44,16.01c4.55,14.18,12.13,26.68,21.39,38.23
			c0.71,0.89,1.64,1.69,2.62,2.25c3.63,2.06,8.22,1.1,11.03-2.18c2.57-3.01,2.55-7.71-0.09-11.04
			c-6.79-8.57-12.61-17.71-16.62-27.92c-3.25-8.27-5.12-16.79-4.66-25.74c0.58-11.15,4.75-20.78,12.37-28.88
			c7.56-8.05,16.94-13.27,27.22-17c12.08-4.38,24.6-6.46,37.4-7.05c5.22-0.24,8.96-3.75,9.12-8.54c0.15-4.55-3.7-9.52-10.08-9.02
			c-7.91,0.62-15.79,1.39-23.58,2.96c-14.24,2.87-27.65,7.8-39.94,15.7c-15.46,9.93-28.28,22.42-37.81,38.17
			c-8.3,13.71-14.24,28.25-15.31,44.48c-0.48,7.33-0.21,14.61,0.92,21.84c1.29,8.21,3.47,16.21,6.68,23.88
			c1.84,4.39,3.84,8.73,6,12.97c1.76,3.47,5.32,5,9.23,4.4c3.36-0.52,6.24-3.29,6.98-6.78c0.51-2.43-0.13-4.64-1.27-6.81
			c-6.17-11.81-10.2-24.26-11.15-37.64c-0.81-11.35,1.06-22.23,5.37-32.72C329.89,230.6,330.04,230.46,330.29,230.12z
			 M417.96,184.43c-0.91,0.1-2.48,0.3-4.05,0.45c-10.19,0.99-20.16,3.01-29.93,6.07c-6.31,1.97-12.41,4.44-18.3,7.45
			c-3.64,1.86-5.56,5.7-4.8,9.39c1.21,5.86,6.92,8.69,12.45,6.33c5.25-2.25,10.5-4.57,15.89-6.43c7.86-2.71,16.01-4.25,24.28-5.17
			c2.43-0.27,4.91-0.34,7.29-0.85c4.36-0.93,7.22-5.12,6.71-9.46C426.99,187.71,423.23,184.42,417.96,184.43z"/>
		<path class="st0" d="M459,126.72c0.51,0.37,0.8,0.55,1.05,0.78c12.35,11.11,20.23,24.83,24.26,40.9
			c2.64,10.54,3.36,21.21,2.87,31.98c-0.45,9.8-2.1,19.44-4.57,28.94c-5.34,20.54-14.24,39.5-25.57,57.37
			c-12.93,20.4-28.57,38.53-46.24,54.96c-14.87,13.83-30.95,26.02-48.61,36.09c-13.74,7.84-28.12,14.22-43.34,18.62
			c-8.78,2.54-17.71,4.39-26.81,5.32c-14.47,1.47-28.79,0.72-42.81-3.43c-13.66-4.04-25.58-10.98-35.32-21.47
			c-0.78-0.84-1.59-1.65-2.64-2.75c0.62,0.08,0.85,0.07,1.06,0.14c8.02,2.9,16.32,4.31,24.82,4.85c8.75,0.56,17.42-0.08,26.06-1.42
			c17.69-2.75,34.39-8.57,50.51-16.21c14.83-7.03,28.78-15.53,42-25.24c22.44-16.48,42.24-35.7,59.46-57.55
			c12.66-16.07,23.54-33.25,32.17-51.82c6.35-13.66,11.33-27.79,14.2-42.59c1-5.16,1.56-10.4,2.17-15.63
			c0.8-6.91,0.67-13.85-0.06-20.76c-0.72-6.9-2.06-13.68-4.5-20.21C459.08,127.43,459.08,127.23,459,126.72z"/>
		<path d="M216.03,319.74c0,2.2-0.01,4.4,0,6.6c0.02,4.79-3.73,8.65-8.53,8.77c-4.66,0.12-8.6-3.62-8.89-8.32
			c-0.98-16.25,1.28-32.1,5.59-47.73c6.64-24.03,17.85-45.83,32.18-66.12c13.43-19.01,29.27-35.81,47.24-50.59
			c15.3-12.58,31.84-23.24,49.8-31.66c13.57-6.36,27.66-11.22,42.36-14.22c11.52-2.36,23.17-3.31,34.93-2.8
			c1.57,0.07,3.15,0.23,4.71,0.43c4.88,0.63,8.17,4.91,7.6,9.81c-0.53,4.59-4.76,7.95-9.57,7.52c-10.12-0.91-20.15-0.23-30.15,1.47
			c-12.21,2.07-23.96,5.66-35.36,10.43c-17.7,7.41-33.89,17.35-48.98,29.15c-13.11,10.25-25.03,21.74-35.77,34.43
			c-15.33,18.09-27.81,37.93-36.55,60.02c-4.53,11.45-7.9,23.23-9.54,35.44c-0.77,5.75-1.06,11.56-1.57,17.34
			C215.71,319.73,215.87,319.73,216.03,319.74z"/>
		<path d="M330.29,230.12c-0.24,0.34-0.4,0.48-0.47,0.65c-4.32,10.49-6.18,21.37-5.37,32.72c0.95,13.38,4.98,25.82,11.15,37.64
			c1.13,2.17,1.78,4.38,1.27,6.81c-0.73,3.5-3.61,6.27-6.98,6.78c-3.91,0.6-7.47-0.93-9.23-4.4c-2.16-4.25-4.16-8.58-6-12.97
			c-3.21-7.67-5.39-15.67-6.68-23.88c-1.14-7.24-1.41-14.51-0.92-21.84c1.07-16.23,7.01-30.77,15.31-44.48
			c9.53-15.74,22.35-28.23,37.81-38.17c12.29-7.9,25.7-12.83,39.94-15.7c7.79-1.57,15.67-2.34,23.58-2.96
			c6.38-0.5,10.23,4.47,10.08,9.02c-0.16,4.79-3.9,8.3-9.12,8.54c-12.79,0.6-25.32,2.67-37.4,7.05c-10.28,3.73-19.65,8.95-27.22,17
			c-7.62,8.11-11.79,17.73-12.37,28.88c-0.46,8.95,1.41,17.47,4.66,25.74c4.01,10.22,9.83,19.36,16.62,27.92
			c2.64,3.33,2.66,8.03,0.09,11.04c-2.81,3.29-7.4,4.25-11.03,2.18c-0.99-0.56-1.91-1.36-2.62-2.25
			c-9.26-11.55-16.83-24.05-21.39-38.23c-1.68-5.22-2.91-10.54-3.44-16.01C330.54,230.91,330.41,230.61,330.29,230.12z"/>
		<path d="M417.96,184.43c5.28,0,9.03,3.28,9.55,7.78c0.5,4.34-2.35,8.53-6.71,9.46c-2.38,0.51-4.86,0.58-7.29,0.85
			c-8.26,0.92-16.42,2.46-24.28,5.17c-5.4,1.86-10.64,4.18-15.89,6.43c-5.53,2.37-11.24-0.47-12.45-6.33
			c-0.76-3.69,1.16-7.53,4.8-9.39c5.88-3.01,11.99-5.48,18.3-7.45c9.77-3.06,19.74-5.08,29.93-6.07
			C415.48,184.72,417.04,184.53,417.96,184.43z"/>
	</g>
</g>
</svg>
